<?xml version="1.0" encoding="UTF-8"?>
<svg xmlns="http://www.w3.org/2000/svg" xmlns:xlink="http://www.w3.org/1999/xlink" width="300px" height="300px" viewBox="0 0 300 300" version="1.1">
<g id="surface1">
<path style=" stroke:none;fill-rule:nonzero;fill:rgb(86.666667%,18.039216%,26.666667%);fill-opacity:1;" d="M 252.449219 24.484375 C 241.667969 19.292969 229.582031 16.382812 216.816406 16.382812 C 189.25 16.382812 164.925781 29.992188 150 50.792969 C 135.074219 29.992188 110.75 16.382812 83.191406 16.382812 C 37.773438 16.382812 0.957031 53.199219 0.957031 98.617188 C 0.957031 105.050781 1.773438 111.285156 3.175781 117.292969 C 3.675781 120.382812 16.324219 138.824219 16.324219 138.824219 L 22.964844 170.292969 C 52.609375 222.234375 107.589844 268.199219 150 283.617188 C 195.734375 266.992188 256.101562 214.824219 283.523438 157.949219 Z M 252.449219 24.484375 "/>
<path style=" stroke:none;fill-rule:nonzero;fill:rgb(90.196078%,90.588235%,90.980392%);fill-opacity:1;" d="M 298.648438 88.476562 L 287.367188 81.523438 L 295.75 74.566406 C 295.109375 72.476562 294.351562 70.441406 293.550781 68.425781 L 282.714844 65.660156 L 287.300781 55.898438 C 282.074219 47.316406 275.351562 39.773438 267.457031 33.632812 L 250.535156 32.816406 L 10.234375 123.601562 L 6.367188 131.941406 C 8.839844 140.640625 12.191406 149.339844 16.332031 157.933594 L 283.757812 158.058594 C 288.191406 148.859375 291.785156 139.542969 294.292969 130.226562 L 288.140625 123.410156 L 297.292969 116.308594 C 298.566406 110.601562 299.339844 104.707031 299.339844 98.617188 C 299.332031 95.175781 299.058594 91.800781 298.648438 88.476562 Z M 298.648438 88.476562 "/>
<path style=" stroke:none;fill-rule:nonzero;fill:rgb(81.960784%,82.745098%,83.137255%);fill-opacity:1;" d="M 295.742188 74.558594 L 252.234375 74.558594 L 215.285156 88.476562 L 298.640625 88.464844 C 298.058594 83.699219 297.109375 79.042969 295.742188 74.558594 Z M 267.449219 33.632812 C 262.832031 30.042969 257.824219 26.949219 252.492188 24.398438 L 3.234375 118.25 C 4 122.800781 5.058594 127.367188 6.359375 131.941406 Z M 267.449219 33.632812 "/>
<path style=" stroke:none;fill-rule:nonzero;fill:rgb(73.72549%,74.509804%,75.294118%);fill-opacity:1;" d="M 129.375 130.234375 L 294.285156 130.226562 C 295.449219 125.917969 297.207031 116.640625 297.273438 116.308594 L 166.339844 116.316406 L 293.550781 68.417969 C 291.824219 64.042969 289.714844 59.867188 287.300781 55.898438 L 16.324219 157.933594 C 18.332031 162.101562 20.492188 166.25 22.832031 170.359375 Z M 129.375 130.234375 "/>
</g>
</svg>
