<?xml version="1.0" encoding="UTF-8"?>
<svg xmlns="http://www.w3.org/2000/svg" xmlns:xlink="http://www.w3.org/1999/xlink" width="300px" height="300px" viewBox="0 0 300 300" version="1.1">
<g id="surface1">
<path style=" stroke:none;fill-rule:nonzero;fill:rgb(80%,83.921569%,86.666667%);fill-opacity:1;" d="M 298.957031 288.367188 L 164.964844 125.941406 C 164.964844 125.941406 117.992188 156.707031 100.890625 206.574219 C 100.890625 206.574219 139.785156 250.675781 182.476562 275.117188 C 235.542969 305.5 279.492188 298.910156 296.667969 295.042969 C 299.683594 294.367188 300.925781 290.765625 298.957031 288.367188 Z M 298.957031 288.367188 "/>
<path style=" stroke:none;fill-rule:nonzero;fill:rgb(66.666667%,72.156863%,76.078431%);fill-opacity:1;" d="M 150.589844 108.375 L 116.964844 138.035156 C 117.515625 138.265625 119.601562 141.785156 118.417969 147.257812 C 115.066406 162.800781 98.867188 182.992188 93.632812 189.742188 C 92.015625 191.824219 91.765625 195.5 93.851562 198.132812 L 100.890625 206.574219 C 116.066406 173.542969 155.523438 134.125 164.964844 125.941406 Z M 150.589844 108.375 "/>
<path style=" stroke:none;fill-rule:nonzero;fill:rgb(19.215686%,21.568627%,23.921569%);fill-opacity:1;" d="M 150.589844 108.375 C 150.589844 108.375 122.925781 73.242188 102.566406 50.160156 C 82.207031 27.074219 68.398438 13.816406 55.207031 5.332031 C 41.75 -3.316406 27.375 1.707031 16.507812 11.285156 C 5.640625 20.859375 -6.015625 42.351562 6.558594 56.609375 C 13.441406 64.417969 29.765625 57.257812 38.148438 66.765625 C 43.839844 73.214844 46.742188 78.140625 67.015625 98.925781 C 98.339844 131.042969 116.964844 138.023438 116.964844 138.023438 C 116.964844 138.023438 127.390625 129.339844 133.066406 124.292969 C 138.75 119.257812 150.589844 108.375 150.589844 108.375 Z M 150.589844 108.375 "/>
<path style=" stroke:none;fill-rule:nonzero;fill:rgb(96.078431%,97.254902%,98.039216%);fill-opacity:1;" d="M 108.191406 87.859375 C 108.191406 94.140625 103.097656 99.234375 96.816406 99.234375 C 90.535156 99.234375 85.441406 94.140625 85.441406 87.859375 C 85.441406 81.574219 90.535156 76.484375 96.816406 76.484375 C 103.097656 76.484375 108.191406 81.574219 108.191406 87.859375 Z M 108.191406 87.859375 "/>
<path style=" stroke:none;fill-rule:nonzero;fill:rgb(96.078431%,97.254902%,98.039216%);fill-opacity:1;" d="M 60.566406 38.773438 C 60.566406 45.058594 55.472656 50.148438 49.191406 50.148438 C 42.910156 50.148438 37.816406 45.058594 37.816406 38.773438 C 37.816406 32.492188 42.910156 27.398438 49.191406 27.398438 C 55.472656 27.398438 60.566406 32.492188 60.566406 38.773438 Z M 60.566406 38.773438 "/>
</g>
</svg>
