<?xml version="1.0" encoding="UTF-8"?>
<svg xmlns="http://www.w3.org/2000/svg" xmlns:xlink="http://www.w3.org/1999/xlink" width="300px" height="300px" viewBox="0 0 300 300" version="1.1">
<g id="surface1">
<path style=" stroke:none;fill-rule:nonzero;fill:rgb(40%,45.882353%,49.803922%);fill-opacity:1;" d="M 123.816406 79.140625 C 127.773438 98.523438 122.300781 114.441406 99.476562 117.792969 C 76.632812 121.148438 43.640625 150.273438 25.742188 102.808594 C 15.367188 75.316406 9.101562 18.617188 21.898438 16.742188 C 34.707031 14.859375 119.867188 59.757812 123.816406 79.140625 Z M 123.816406 79.140625 "/>
<path style=" stroke:none;fill-rule:nonzero;fill:rgb(80%,83.921569%,86.666667%);fill-opacity:1;" d="M 106.535156 82.089844 C 113.742188 93.691406 88.160156 114.035156 74.5 120.160156 C 60.839844 126.292969 50.207031 114.660156 39.726562 85.992188 C 35.140625 73.464844 29.441406 39.890625 34.441406 37.640625 C 39.433594 35.410156 99.316406 70.492188 106.535156 82.089844 Z M 106.535156 82.089844 "/>
<path style=" stroke:none;fill-rule:nonzero;fill:rgb(40%,45.882353%,49.803922%);fill-opacity:1;" d="M 178.101562 79.140625 C 174.285156 98.523438 179.566406 114.441406 201.582031 117.792969 C 223.617188 121.148438 255.449219 150.273438 272.714844 102.808594 C 282.726562 75.308594 288.773438 18.617188 276.425781 16.734375 C 264.066406 14.859375 181.910156 59.757812 178.101562 79.140625 Z M 178.101562 79.140625 "/>
<path style=" stroke:none;fill-rule:nonzero;fill:rgb(80%,83.921569%,86.666667%);fill-opacity:1;" d="M 194.773438 82.089844 C 187.816406 93.691406 212.5 114.035156 225.675781 120.160156 C 238.851562 126.292969 249.109375 114.660156 259.226562 85.992188 C 263.648438 73.464844 269.140625 39.890625 264.316406 37.640625 C 259.507812 35.410156 201.742188 70.492188 194.773438 82.089844 Z M 194.773438 82.089844 "/>
<path style=" stroke:none;fill-rule:nonzero;fill:rgb(40%,45.882353%,49.803922%);fill-opacity:1;" d="M 269.558594 224.265625 C 269.558594 220.484375 267.992188 215.175781 266.167969 210.207031 C 271.042969 210.441406 278.824219 211.800781 289.25 217.015625 C 289.183594 212.550781 288.265625 208.816406 286.976562 205.410156 C 287.316406 205.574219 287.601562 205.691406 287.941406 205.867188 C 278.742188 178.285156 260.367188 159.890625 260.367188 159.890625 L 278.75 159.890625 C 259.324219 121.035156 237.375 93.101562 211.457031 80.234375 C 199.875 72.957031 180.726562 69.082031 150.015625 69.074219 L 149.992188 69.074219 C 119.191406 69.074219 100.023438 72.976562 88.449219 80.292969 C 62.582031 93.183594 40.667969 121.089844 21.273438 159.890625 L 39.667969 159.890625 C 39.667969 159.890625 21.273438 178.273438 12.074219 205.867188 L 12.773438 205.542969 C 11.101562 208.808594 10.214844 212.601562 10.425781 217.015625 C 20.949219 211.75 28.898438 210.417969 33.867188 210.199219 C 32.292969 214.476562 31.007812 218.898438 30.648438 222.492188 C 29.625 225.582031 29.058594 229.257812 29.523438 233.683594 C 56.25 221.535156 68.75 223.265625 83.332031 230.558594 C 93.441406 260.75 118.382812 283.332031 150.007812 283.332031 C 181.617188 283.332031 206.226562 260.050781 216.324219 229.867188 C 228.476562 219.449219 247.226562 222.574219 269.792969 233.332031 C 270.339844 229.890625 270.089844 226.890625 269.492188 224.226562 Z M 269.558594 224.265625 "/>
<path style=" stroke:none;fill-rule:nonzero;fill:rgb(80%,83.921569%,86.666667%);fill-opacity:1;" d="M 287.941406 205.867188 C 284.300781 194.925781 257.398438 180.023438 229.832031 168.257812 C 232 162.726562 233.332031 156.582031 233.332031 150 C 233.332031 126.992188 218.410156 108.332031 200 108.332031 C 181.589844 108.332031 166.667969 126.992188 166.667969 150 C 166.667969 175 200 233.332031 149.992188 242.648438 C 107.285156 234.691406 125.375 190.976562 131.558594 162.816406 C 132.160156 160.515625 132.601562 158.160156 132.875 155.707031 C 133.160156 153.667969 133.332031 151.742188 133.332031 150 C 133.332031 126.992188 118.410156 108.332031 100 108.332031 C 81.589844 108.332031 66.667969 126.992188 66.667969 150 C 66.667969 156.582031 68 162.726562 70.175781 168.257812 C 42.609375 180.023438 15.714844 194.925781 12.066406 205.867188 C 30.457031 196.667969 39.660156 196.667969 39.660156 196.667969 C 39.660156 196.667969 30.457031 215.066406 30.457031 224.265625 C 52.707031 209.433594 74.949219 206.582031 92.367188 220.5 C 102.476562 250.691406 116.667969 275 150.007812 251.035156 C 183.332031 275 197.507812 250.699219 207.609375 220.515625 C 225.042969 206.574219 247.300781 209.433594 269.558594 224.265625 C 269.558594 215.066406 260.367188 196.667969 260.367188 196.667969 C 260.367188 196.667969 269.558594 196.675781 287.941406 205.867188 Z M 287.941406 205.867188 "/>
<path style=" stroke:none;fill-rule:nonzero;fill:rgb(16.078431%,18.431373%,20%);fill-opacity:1;" d="M 91.667969 141.667969 C 91.667969 141.667969 91.667969 129.167969 104.167969 129.167969 C 116.667969 129.167969 116.667969 141.667969 116.667969 141.667969 L 116.667969 154.167969 C 116.667969 154.167969 116.667969 166.667969 104.167969 166.667969 C 91.667969 166.667969 91.667969 154.167969 91.667969 154.167969 Z M 183.332031 141.667969 C 183.332031 141.667969 183.332031 129.167969 195.832031 129.167969 C 208.332031 129.167969 208.332031 141.667969 208.332031 141.667969 L 208.332031 154.167969 C 208.332031 154.167969 208.332031 166.667969 195.832031 166.667969 C 183.332031 166.667969 183.332031 154.167969 183.332031 154.167969 Z M 124.492188 217.964844 C 115.984375 219.699219 141.5 251.035156 150.007812 251.035156 C 158.507812 251.035156 184.023438 219.699219 175.523438 217.964844 C 167.023438 216.234375 133 216.234375 124.492188 217.964844 Z M 124.492188 217.964844 "/>
</g>
</svg>
